<svg id="Layer_1" data-name="Layer 1" xmlns="http://www.w3.org/2000/svg" xmlns:xlink="http://www.w3.org/1999/xlink" viewBox="0 0 395.75 539.47"><defs><style>.cls-1{fill:url(#linear-gradient);}</style><linearGradient id="linear-gradient" x1="279.51" y1="564.62" x2="627.85" y2="149.48" gradientTransform="matrix(1, 0, 0, -1, -15.71, 683.36)" gradientUnits="userSpaceOnUse"><stop offset="0" stop-color="#00bf3c"/><stop offset="0.09" stop-color="#00bb3c"/><stop offset="0.18" stop-color="#00b13c"/><stop offset="0.26" stop-color="#009e3d"/><stop offset="0.33" stop-color="#00843e"/><stop offset="0.41" stop-color="#00633f"/><stop offset="0.48" stop-color="#003b40"/><stop offset="0.54" stop-color="#001941"/></linearGradient></defs><title>leek-greennavy</title><path class="cls-1" d="M435.21,81.4l-51.38-3.47A21.07,21.07,0,0,0,361.65,95.4l-21.94,126L227,166a21.1,21.1,0,0,0-25.29,5.19l-34,39.61a21.07,21.07,0,0,0,2.29,29.71,20.41,20.41,0,0,0,3.53,2.45l155.31,85.67L461.81,605.4a21.06,21.06,0,0,0,28.11,9.87l56.56-27.17A21.05,21.05,0,0,0,556.36,560v0L426.64,289.93l28-184.33A21.06,21.06,0,0,0,437,81.6C436.41,81.51,435.81,81.44,435.21,81.4Z" transform="translate(-162.69 -77.89)"/></svg>