<svg id="Layer_1" data-name="Layer 1" xmlns="http://www.w3.org/2000/svg" xmlns:xlink="http://www.w3.org/1999/xlink" viewBox="0 0 395.75 539.47"><defs><style>.cls-1{fill:url(#linear-gradient);}</style><linearGradient id="linear-gradient" x1="231.51" y1="574.66" x2="579.85" y2="159.53" gradientTransform="matrix(1, 0, 0, -1, -15.71, 683.36)" gradientUnits="userSpaceOnUse"><stop offset="0" stop-color="#00bf3c"/><stop offset="0.08" stop-color="#04c03f"/><stop offset="0.14" stop-color="#0ec347"/><stop offset="0.21" stop-color="#21c755"/><stop offset="0.27" stop-color="#3bce69"/><stop offset="0.34" stop-color="#5cd682"/><stop offset="0.4" stop-color="#85e0a1"/><stop offset="0.46" stop-color="#b5ecc6"/><stop offset="0.52" stop-color="#ecfaf0"/><stop offset="0.54" stop-color="#fff"/></linearGradient></defs><title>leek-greenwhite</title><path class="cls-1" d="M387.21,71.36l-51.38-3.47a21.06,21.06,0,0,0-22.18,17.47l-21.94,126L179,156a21.08,21.08,0,0,0-25.29,5.19l-33.95,39.61a21.08,21.08,0,0,0,5.82,32.16l155.31,85.67L413.81,595.36a21.07,21.07,0,0,0,28.11,9.87l56.56-27.17a21.06,21.06,0,0,0,9.88-28.1h0L378.64,279.89l28-184.33a21.05,21.05,0,0,0-17.63-24C388.41,71.47,387.81,71.4,387.21,71.36Z" transform="translate(-114.69 -67.84)"/></svg>