<svg id="Layer_1" data-name="Layer 1" xmlns="http://www.w3.org/2000/svg" viewBox="0 0 395.75 539.47"><defs><style>.cls-1{fill:#001941;}</style></defs><title>leek-navy</title><path class="cls-1" d="M272.52,3.5,221.14,0A21.06,21.06,0,0,0,199,17.5L177,143.5,64.31,88.12A21.08,21.08,0,0,0,39,93.31L5.07,132.92a21.08,21.08,0,0,0,5.82,32.16L166.2,250.75,299.12,527.5a21.07,21.07,0,0,0,28.11,9.87l56.56-27.17a21.06,21.06,0,0,0,9.88-28.1h0L264,212,292,27.7a21.05,21.05,0,0,0-17.63-24C273.72,3.61,273.12,3.54,272.52,3.5Z" transform="translate(0 0.02)"/></svg>