<svg id="Layer_2" data-name="Layer 2" xmlns="http://www.w3.org/2000/svg" viewBox="0 0 361.95 297.34"><defs><style>.cls-1{fill:#001941;}</style></defs><title>home</title><path class="cls-1" d="M9.26,154,182.31,9a8.59,8.59,0,0,1,11-.05l67.5,55.48-.87-44.92a7,7,0,0,1,7-7.08h45.9a7,7,0,0,1,6.95,7l-.93,91,46.53,41.84a8.58,8.58,0,0,1,1.21,11.41q-5.19,7.16-10.37,14.33a8.59,8.59,0,0,1-12.43,1.57L187.77,50.39,31.44,180.82a8.59,8.59,0,0,1-12.16-1.16L8.12,166A8.58,8.58,0,0,1,9.26,154Z" transform="translate(-6.19 -6.96)"/><path class="cls-1" d="M56.77,178.39,54.91,292.75a8.59,8.59,0,0,0,8.5,8.72l86.59.83a8.59,8.59,0,0,0,8.67-8.68l-.9-77.23h59v79.33a8.58,8.58,0,0,0,8.67,8.58l82.9-.83a8.59,8.59,0,0,0,8.5-8.51l.93-115.57-131-107Z" transform="translate(-6.19 -6.96)"/></svg>