<svg xmlns="http://www.w3.org/2000/svg" xmlns:xlink="http://www.w3.org/1999/xlink" viewBox="0 0 177.91 242.52"><defs><style>.cls-1{fill:url(#linear-gradient);}</style><linearGradient id="linear-gradient" x1="161.72" y1="68.11" x2="318.33" y2="254.74" gradientUnits="userSpaceOnUse"><stop offset="0" stop-color="#fff"/><stop offset="0.51" stop-color="#fff"/><stop offset="0.54" stop-color="#fff"/></linearGradient></defs><title>leek</title><g id="Layer_2" data-name="Layer 2"><path class="cls-1" d="M238.79,51.32l-23.1-1.56a9.47,9.47,0,0,0-10,7.83l-9.86,56.67-50.68-24.9a9.46,9.46,0,0,0-11.36,2.33L118.55,109.5A9.46,9.46,0,0,0,121.17,124L191,162.47l59.76,124.42a9.48,9.48,0,0,0,12.64,4.44l25.42-12.22a9.46,9.46,0,0,0,4.44-12.63L234.93,145.06l12.58-82.87A9.46,9.46,0,0,0,238.79,51.32Z" transform="translate(-116.27 -49.74)"/></g></svg>